<svg width="64" height="64" fill="none" xmlns="http://www.w3.org/2000/svg"><rect width="64" height="64" rx="32" fill="#E1E7ED"/><path d="m33.583 26.262 3.075-1.512c.375-.188.475-.675.187-.975a35.684 35.684 0 0 0-3.137-3.025.618.618 0 0 0-1.025.475V25.7c0 .463.487.762.9.563ZM32.683 41.675v2.063c0 .374.337.687.712.624 3.413-.562 6.263-2.85 7.613-5.925.237-.524-.338-1.05-.863-.8l-7.112 3.488a.607.607 0 0 0-.35.55ZM30.808 21.2a.625.625 0 0 0-1.025-.488c-2.95 2.476-8.188 7.688-8.163 13.663 0 5.025 3.675 9.188 8.475 9.987.375.063.713-.25.713-.625V21.2ZM33.545 32.587l6.613-2.775c.337-.15.5-.537.337-.862-.462-.912-1-1.8-1.587-2.625a.623.623 0 0 0-.775-.2l-5.113 2.488a.626.626 0 0 0-.35.562v2.838c.013.437.463.75.875.575ZM41.533 34.888a.56.56 0 0 0 .325-.5c0-.8-.1-1.588-.275-2.363a.623.623 0 0 0-.85-.425l-7.675 3.275a.632.632 0 0 0-.375.575v2.75c0 .462.487.762.9.563l7.375-3.588.575-.287Z" fill="#1AAB7B"/></svg>