<svg width="64" height="64" fill="none" xmlns="http://www.w3.org/2000/svg"><rect width="64" height="64" rx="32" fill="#E1E7ED"/><path d="m41.17 25.175-3.837-3.838a6.254 6.254 0 0 0-4.425-1.837h-6.163c-3.75 0-6.25 2.5-6.25 6.25v12.5c0 3.75 2.5 6.25 6.25 6.25h10c3.75 0 6.25-2.5 6.25-6.25v-8.663c0-1.662-.662-3.25-1.825-4.412ZM29.283 38.837a.943.943 0 0 1 0 1.325.927.927 0 0 1-.663.276.927.927 0 0 1-.662-.276l-2.5-2.5a.943.943 0 0 1 0-1.325l2.5-2.5a.943.943 0 0 1 1.325 0 .943.943 0 0 1 0 1.325L27.445 37l1.838 1.837Zm8.75-1.175-2.5 2.5a.927.927 0 0 1-.663.276.927.927 0 0 1-.662-.276.943.943 0 0 1 0-1.325L36.045 37l-1.837-1.837a.943.943 0 0 1 0-1.325.943.943 0 0 1 1.325 0l2.5 2.5a.943.943 0 0 1 0 1.325Z" fill="#1AAB7B"/></svg>