<svg width="64" height="64" fill="none" xmlns="http://www.w3.org/2000/svg"><rect width="64" height="64" rx="32" fill="#E1E7ED"/><path d="m43.045 33.6-1.15-1.125-9.687 9.675 1.162 1.163c.975.974 1.988 1.462 2.988 1.462s2.012-.487 2.987-1.462l3.7-3.7c1.988-2 1.988-4.013 0-6.013ZM30.108 20.663c-1.963-1.963-4.025-1.963-5.988 0l-3.712 3.7c-1.95 1.962-1.95 4.024 0 5.987l1.15 1.15 9.687-9.688-1.137-1.15ZM44.008 21.925c-1.638 4.087-5.375 9.425-8.938 12.912a7.453 7.453 0 0 0-6.337-6.2c3.5-3.575 8.875-7.362 12.975-9.012a1.778 1.778 0 0 1 1.9.387c.475.476.7 1.188.4 1.913Z" fill="#1AAB7B"/><path d="M33.97 35.862c-.25.213-.5.425-.75.625l-2.237 1.788c0-.038-.013-.087-.013-.137-.175-1.338-.8-2.575-1.812-3.588a6.286 6.286 0 0 0-3.7-1.825c-.038 0-.088-.013-.125-.013l1.812-2.287c.175-.225.363-.438.563-.663l.85.113c2.687.375 4.85 2.487 5.275 5.163l.137.825Z" fill="#1AAB7B"/><path d="M29.783 39.025a5.123 5.123 0 0 1-1.525 3.675c-.763.775-1.788 1.3-3.038 1.45l-3.062.337c-1.675.188-3.113-1.25-2.925-2.937l.337-3.075c.3-2.738 2.588-4.488 5.013-4.538.237-.012.5 0 .75.026 1.062.137 2.087.624 2.95 1.474.837.838 1.312 1.826 1.45 2.863.025.25.05.488.05.725Z" fill="#1AAB7B"/></svg>