<svg width="64" height="64" fill="none" xmlns="http://www.w3.org/2000/svg"><rect width="64" height="64" rx="32" fill="#fff"/><path d="M42.433 28.8h-1.375c-.188 0-.375.037-.55.087L34.27 22.65a1.95 1.95 0 0 0-.162-2.587l-.975-.976c-.738-.737-2.038-.737-2.788 0l-.975.976c-.7.7-.75 1.812-.15 2.587l-6.237 6.238a2.023 2.023 0 0 0-.55-.088h-1.375a1.98 1.98 0 0 0-1.975 1.975v1.375a1.98 1.98 0 0 0 1.975 1.975h1.375a1.98 1.98 0 0 0 1.975-1.975v-1.375c0-.188-.038-.375-.088-.55l6.238-6.238c.337.263.762.4 1.187.4.425 0 .85-.15 1.2-.412l6.238 6.237c-.05.175-.088.363-.088.55v1.376a1.98 1.98 0 0 0 1.975 1.974h1.375a1.98 1.98 0 0 0 1.975-1.974v-1.375a1.996 1.996 0 0 0-1.987-1.963Z" fill="#1AAB7B"/><path d="m36.433 37.688-2.05 1.812h-5.325l-2.05-1.813c-1.188-.974-1.188-1.724-.288-2.874l3.613-4.576c.25-.312.537-.524.862-.637.338-.113.7-.113 1.05 0 .313.112.6.325.863.637l3.612 4.576c.9 1.137.863 1.85-.287 2.874ZM33.358 44.5H30.12c-1.15 0-2.012-.938-1.787-1.938l.387-1.737a.75.75 0 0 1 .738-.588h4.562c.35 0 .65.238.738.588l.387 1.737c.25 1.063-.562 1.938-1.787 1.938Z" fill="#1AAB7B"/></svg>